<svg width="168" height="84" viewBox="0 0 168 84" fill="none" xmlns="http://www.w3.org/2000/svg">
<g filter="url(#filter0_d_312_999)">
<rect x="15" y="11" width="138" height="54" rx="27" fill="white" shape-rendering="crispEdges"/>
<path d="M58.4491 43.192C57.3184 43.192 56.3477 42.952 55.5371 42.472C54.7264 41.9813 54.1024 41.304 53.6651 40.44C53.2277 39.5653 53.0091 38.5573 53.0091 37.416C53.0091 36.2747 53.2277 35.2667 53.6651 34.392C54.1024 33.5173 54.7264 32.8347 55.5371 32.344C56.3477 31.8533 57.3184 31.608 58.4491 31.608C59.7931 31.608 60.8917 31.944 61.7451 32.616C62.6091 33.2773 63.1477 34.2107 63.3611 35.416H61.1051C60.9664 34.808 60.6677 34.3333 60.2091 33.992C59.7611 33.64 59.1637 33.464 58.4171 33.464C57.3824 33.464 56.5717 33.816 55.9851 34.52C55.3984 35.224 55.1051 36.1893 55.1051 37.416C55.1051 38.6427 55.3984 39.608 55.9851 40.312C56.5717 41.0053 57.3824 41.352 58.4171 41.352C59.1637 41.352 59.7611 41.192 60.2091 40.872C60.6677 40.5413 60.9664 40.088 61.1051 39.512H63.3611C63.1477 40.664 62.6091 41.5653 61.7451 42.216C60.8917 42.8667 59.7931 43.192 58.4491 43.192ZM68.9339 43.192C68.1659 43.192 67.4726 43.016 66.8539 42.664C66.2459 42.312 65.7606 41.8267 65.3979 41.208C65.0459 40.5787 64.8699 39.8533 64.8699 39.032C64.8699 38.2107 65.0513 37.4907 65.4139 36.872C65.7766 36.2427 66.2619 35.752 66.8699 35.4C67.4886 35.048 68.1819 34.872 68.9499 34.872C69.7073 34.872 70.3899 35.048 70.9979 35.4C71.6166 35.752 72.1019 36.2427 72.4539 36.872C72.8166 37.4907 72.9979 38.2107 72.9979 39.032C72.9979 39.8533 72.8166 40.5787 72.4539 41.208C72.1019 41.8267 71.6166 42.312 70.9979 42.664C70.3793 43.016 69.6913 43.192 68.9339 43.192ZM68.9339 41.416C69.4673 41.416 69.9313 41.2187 70.3259 40.824C70.7206 40.4187 70.9179 39.8213 70.9179 39.032C70.9179 38.2427 70.7206 37.6507 70.3259 37.256C69.9313 36.8507 69.4726 36.648 68.9499 36.648C68.4059 36.648 67.9366 36.8507 67.5419 37.256C67.1579 37.6507 66.9659 38.2427 66.9659 39.032C66.9659 39.8213 67.1579 40.4187 67.5419 40.824C67.9366 41.2187 68.4006 41.416 68.9339 41.416ZM74.8291 43V35.064H76.6371L76.7971 36.408C77.0424 35.9387 77.3944 35.5653 77.8531 35.288C78.3224 35.0107 78.8717 34.872 79.5011 34.872C80.4824 34.872 81.2451 35.1813 81.7891 35.8C82.3331 36.4187 82.6051 37.3253 82.6051 38.52V43H80.5571V38.712C80.5571 38.0293 80.4184 37.5067 80.1411 37.144C79.8637 36.7813 79.4317 36.6 78.8451 36.6C78.2691 36.6 77.7944 36.8027 77.4211 37.208C77.0584 37.6133 76.8771 38.1787 76.8771 38.904V43H74.8291ZM88.0994 43C87.2674 43 86.6008 42.7973 86.0994 42.392C85.5981 41.9867 85.3474 41.2667 85.3474 40.232V36.776H83.9874V35.064H85.3474L85.5874 32.936H87.3954V35.064H89.5394V36.776H87.3954V40.248C87.3954 40.632 87.4754 40.8987 87.6354 41.048C87.8061 41.1867 88.0941 41.256 88.4994 41.256H89.4914V43H88.0994ZM94.0338 43.192C93.3511 43.192 92.7911 43.0853 92.3538 42.872C91.9165 42.648 91.5911 42.3547 91.3778 41.992C91.1645 41.6293 91.0578 41.2293 91.0578 40.792C91.0578 40.056 91.3458 39.4587 91.9218 39C92.4978 38.5413 93.3618 38.312 94.5138 38.312H96.5298V38.12C96.5298 37.576 96.3751 37.176 96.0658 36.92C95.7565 36.664 95.3725 36.536 94.9138 36.536C94.4978 36.536 94.1351 36.6373 93.8258 36.84C93.5165 37.032 93.3245 37.32 93.2498 37.704H91.2498C91.3031 37.128 91.4951 36.6267 91.8258 36.2C92.1671 35.7733 92.6045 35.448 93.1378 35.224C93.6711 34.9893 94.2685 34.872 94.9298 34.872C96.0605 34.872 96.9511 35.1547 97.6018 35.72C98.2525 36.2853 98.5778 37.0853 98.5778 38.12V43H96.8338L96.6418 41.72C96.4071 42.1467 96.0765 42.4987 95.6498 42.776C95.2338 43.0533 94.6951 43.192 94.0338 43.192ZM94.4978 41.592C95.0845 41.592 95.5378 41.4 95.8578 41.016C96.1885 40.632 96.3965 40.1573 96.4818 39.592H94.7378C94.1938 39.592 93.8045 39.6933 93.5698 39.896C93.3351 40.088 93.2178 40.328 93.2178 40.616C93.2178 40.9253 93.3351 41.1653 93.5698 41.336C93.8045 41.5067 94.1138 41.592 94.4978 41.592ZM104.42 43.192C103.61 43.192 102.895 43.016 102.276 42.664C101.658 42.312 101.167 41.8213 100.804 41.192C100.452 40.5627 100.276 39.8427 100.276 39.032C100.276 38.2213 100.452 37.5013 100.804 36.872C101.167 36.2427 101.658 35.752 102.276 35.4C102.895 35.048 103.61 34.872 104.42 34.872C105.434 34.872 106.287 35.1387 106.98 35.672C107.674 36.1947 108.116 36.92 108.308 37.848H106.148C106.042 37.464 105.828 37.1653 105.508 36.952C105.199 36.728 104.831 36.616 104.404 36.616C103.839 36.616 103.359 36.8293 102.964 37.256C102.57 37.6827 102.372 38.2747 102.372 39.032C102.372 39.7893 102.57 40.3813 102.964 40.808C103.359 41.2347 103.839 41.448 104.404 41.448C104.831 41.448 105.199 41.3413 105.508 41.128C105.828 40.9147 106.042 40.6107 106.148 40.216H108.308C108.116 41.112 107.674 41.832 106.98 42.376C106.287 42.92 105.434 43.192 104.42 43.192ZM113.553 43C112.721 43 112.054 42.7973 111.553 42.392C111.051 41.9867 110.801 41.2667 110.801 40.232V36.776H109.441V35.064H110.801L111.041 32.936H112.849V35.064H114.993V36.776H112.849V40.248C112.849 40.632 112.929 40.8987 113.089 41.048C113.259 41.1867 113.547 41.256 113.953 41.256H114.945V43H113.553Z" fill="black" fill-opacity="0.9"/>
</g>
<defs>
<filter id="filter0_d_312_999" x="0" y="0" width="168" height="84" filterUnits="userSpaceOnUse" color-interpolation-filters="sRGB">
<feFlood flood-opacity="0" result="BackgroundImageFix"/>
<feColorMatrix in="SourceAlpha" type="matrix" values="0 0 0 0 0 0 0 0 0 0 0 0 0 0 0 0 0 0 127 0" result="hardAlpha"/>
<feOffset dy="4"/>
<feGaussianBlur stdDeviation="7.5"/>
<feComposite in2="hardAlpha" operator="out"/>
<feColorMatrix type="matrix" values="0 0 0 0 0 0 0 0 0 0 0 0 0 0 0 0 0 0 0.25 0"/>
<feBlend mode="normal" in2="BackgroundImageFix" result="effect1_dropShadow_312_999"/>
<feBlend mode="normal" in="SourceGraphic" in2="effect1_dropShadow_312_999" result="shape"/>
</filter>
</defs>
</svg>
