<svg width="200" height="67" viewBox="0 0 200 67" fill="none" xmlns="http://www.w3.org/2000/svg">
<rect x="0.499756" y="0.462891" width="199" height="66" rx="33" fill="white"/>
<path d="M43.4759 39.6789C42.2879 39.6789 41.2499 39.4089 40.3619 38.8689C39.4739 38.3289 38.7839 37.5789 38.2919 36.6189C37.7999 35.6469 37.5539 34.5189 37.5539 33.2349C37.5539 31.9389 37.8059 30.7989 38.3099 29.8149C38.8259 28.8189 39.5519 28.0449 40.4879 27.4929C41.4359 26.9289 42.5579 26.6469 43.8539 26.6469C45.3299 26.6469 46.5539 27.0009 47.5259 27.7089C48.4979 28.4169 49.1279 29.3949 49.4159 30.6429H46.8419C46.6499 30.0549 46.3019 29.5989 45.7979 29.2749C45.2939 28.9389 44.6459 28.7709 43.8539 28.7709C42.5939 28.7709 41.6219 29.1729 40.9379 29.9769C40.2539 30.7689 39.9119 31.8609 39.9119 33.2529C39.9119 34.6449 40.2479 35.7249 40.9199 36.4929C41.6039 37.2489 42.5279 37.6269 43.6919 37.6269C44.8319 37.6269 45.6899 37.3209 46.2659 36.7089C46.8539 36.0849 47.2079 35.2689 47.3279 34.2609H44.1419V32.5329H49.6499V39.4629H47.5259L47.3459 37.8069C46.9379 38.4069 46.4279 38.8689 45.8159 39.1929C45.2039 39.5169 44.4239 39.6789 43.4759 39.6789ZM56.1738 39.6789C55.2738 39.6789 54.4758 39.4869 53.7798 39.1029C53.0838 38.7189 52.5378 38.1789 52.1418 37.4829C51.7458 36.7869 51.5478 35.9829 51.5478 35.0709C51.5478 34.1469 51.7398 33.3249 52.1238 32.6049C52.5198 31.8849 53.0598 31.3269 53.7438 30.9309C54.4398 30.5229 55.2558 30.3189 56.1918 30.3189C57.0678 30.3189 57.8418 30.5109 58.5138 30.8949C59.1858 31.2789 59.7078 31.8069 60.0798 32.4789C60.4638 33.1389 60.6558 33.8769 60.6558 34.6929C60.6558 34.8249 60.6498 34.9629 60.6378 35.1069C60.6378 35.2509 60.6318 35.4009 60.6198 35.5569H53.8338C53.8818 36.2529 54.1218 36.7989 54.5538 37.1949C54.9978 37.5909 55.5318 37.7889 56.1558 37.7889C56.6238 37.7889 57.0138 37.6869 57.3258 37.4829C57.6498 37.2669 57.8898 36.9909 58.0458 36.6549H60.3858C60.2178 37.2189 59.9358 37.7349 59.5398 38.2029C59.1558 38.6589 58.6758 39.0189 58.0998 39.2829C57.5358 39.5469 56.8938 39.6789 56.1738 39.6789ZM56.1918 32.1909C55.6278 32.1909 55.1298 32.3529 54.6978 32.6769C54.2658 32.9889 53.9898 33.4689 53.8698 34.1169H58.3158C58.2798 33.5289 58.0638 33.0609 57.6678 32.7129C57.2718 32.3649 56.7798 32.1909 56.1918 32.1909ZM66.4134 39.4629C65.4774 39.4629 64.7274 39.2349 64.1634 38.7789C63.5994 38.3229 63.3174 37.5129 63.3174 36.3489V32.4609H61.7874V30.5349H63.3174L63.5874 28.1409H65.6214V30.5349H68.0334V32.4609H65.6214V36.3669C65.6214 36.7989 65.7114 37.0989 65.8914 37.2669C66.0834 37.4229 66.4074 37.5009 66.8634 37.5009H67.9794V39.4629H66.4134ZM77.9906 39.6789C77.1986 39.6789 76.5026 39.5529 75.9026 39.3009C75.3026 39.0369 74.8226 38.6769 74.4626 38.2209C74.1026 37.7649 73.8866 37.2369 73.8146 36.6369H76.1366C76.2086 36.9849 76.4006 37.2849 76.7126 37.5369C77.0366 37.7769 77.4506 37.8969 77.9546 37.8969C78.4586 37.8969 78.8246 37.7949 79.0526 37.5909C79.2926 37.3869 79.4126 37.1529 79.4126 36.8889C79.4126 36.5049 79.2446 36.2469 78.9086 36.1149C78.5726 35.9709 78.1046 35.8329 77.5046 35.7009C77.1206 35.6169 76.7306 35.5149 76.3346 35.3949C75.9386 35.2749 75.5726 35.1249 75.2366 34.9449C74.9126 34.7529 74.6486 34.5129 74.4446 34.2249C74.2406 33.9249 74.1386 33.5589 74.1386 33.1269C74.1386 32.3349 74.4506 31.6689 75.0746 31.1289C75.7106 30.5889 76.5986 30.3189 77.7386 30.3189C78.7946 30.3189 79.6346 30.5649 80.2586 31.0569C80.8946 31.5489 81.2726 32.2269 81.3926 33.0909H79.2146C79.0826 32.4309 78.5846 32.1009 77.7206 32.1009C77.2886 32.1009 76.9526 32.1849 76.7126 32.3529C76.4846 32.5209 76.3706 32.7309 76.3706 32.9829C76.3706 33.2469 76.5446 33.4569 76.8926 33.6129C77.2406 33.7689 77.7026 33.9129 78.2786 34.0449C78.9026 34.1889 79.4726 34.3509 79.9886 34.5309C80.5166 34.6989 80.9366 34.9569 81.2486 35.3049C81.5606 35.6409 81.7166 36.1269 81.7166 36.7629C81.7286 37.3149 81.5846 37.8129 81.2846 38.2569C80.9846 38.7009 80.5526 39.0489 79.9886 39.3009C79.4246 39.5529 78.7586 39.6789 77.9906 39.6789ZM87.4544 39.4629C86.5184 39.4629 85.7684 39.2349 85.2044 38.7789C84.6404 38.3229 84.3584 37.5129 84.3584 36.3489V32.4609H82.8284V30.5349H84.3584L84.6284 28.1409H86.6624V30.5349H89.0744V32.4609H86.6624V36.3669C86.6624 36.7989 86.7524 37.0989 86.9324 37.2669C87.1244 37.4229 87.4484 37.5009 87.9044 37.5009H89.0204V39.4629H87.4544ZM94.1306 39.6789C93.3626 39.6789 92.7326 39.5589 92.2406 39.3189C91.7486 39.0669 91.3826 38.7369 91.1426 38.3289C90.9026 37.9209 90.7826 37.4709 90.7826 36.9789C90.7826 36.1509 91.1066 35.4789 91.7546 34.9629C92.4026 34.4469 93.3746 34.1889 94.6706 34.1889H96.9386V33.9729C96.9386 33.3609 96.7646 32.9109 96.4166 32.6229C96.0686 32.3349 95.6366 32.1909 95.1206 32.1909C94.6526 32.1909 94.2446 32.3049 93.8966 32.5329C93.5486 32.7489 93.3326 33.0729 93.2486 33.5049H90.9986C91.0586 32.8569 91.2746 32.2929 91.6466 31.8129C92.0306 31.3329 92.5226 30.9669 93.1226 30.7149C93.7226 30.4509 94.3946 30.3189 95.1386 30.3189C96.4106 30.3189 97.4126 30.6369 98.1446 31.2729C98.8766 31.9089 99.2426 32.8089 99.2426 33.9729V39.4629H97.2806L97.0646 38.0229C96.8006 38.5029 96.4286 38.8989 95.9486 39.2109C95.4806 39.5229 94.8746 39.6789 94.1306 39.6789ZM94.6526 37.8789C95.3126 37.8789 95.8226 37.6629 96.1826 37.2309C96.5546 36.7989 96.7886 36.2649 96.8846 35.6289H94.9226C94.3106 35.6289 93.8726 35.7429 93.6086 35.9709C93.3446 36.1869 93.2126 36.4569 93.2126 36.7809C93.2126 37.1289 93.3446 37.3989 93.6086 37.5909C93.8726 37.7829 94.2206 37.8789 94.6526 37.8789ZM101.441 39.4629V30.5349H103.493L103.709 32.2089C104.033 31.6329 104.471 31.1769 105.023 30.8409C105.587 30.4929 106.247 30.3189 107.003 30.3189V32.7489H106.355C105.851 32.7489 105.401 32.8269 105.005 32.9829C104.609 33.1389 104.297 33.4089 104.069 33.7929C103.853 34.1769 103.745 34.7109 103.745 35.3949V39.4629H101.441ZM112.556 39.4629C111.62 39.4629 110.87 39.2349 110.306 38.7789C109.742 38.3229 109.46 37.5129 109.46 36.3489V32.4609H107.93V30.5349H109.46L109.73 28.1409H111.764V30.5349H114.176V32.4609H111.764V36.3669C111.764 36.7989 111.854 37.0989 112.034 37.2669C112.226 37.4229 112.55 37.5009 113.006 37.5009H114.122V39.4629H112.556ZM120.264 39.6789C119.364 39.6789 118.566 39.4869 117.87 39.1029C117.174 38.7189 116.628 38.1789 116.232 37.4829C115.836 36.7869 115.638 35.9829 115.638 35.0709C115.638 34.1469 115.83 33.3249 116.214 32.6049C116.61 31.8849 117.15 31.3269 117.834 30.9309C118.53 30.5229 119.346 30.3189 120.282 30.3189C121.158 30.3189 121.932 30.5109 122.604 30.8949C123.276 31.2789 123.798 31.8069 124.17 32.4789C124.554 33.1389 124.746 33.8769 124.746 34.6929C124.746 34.8249 124.74 34.9629 124.728 35.1069C124.728 35.2509 124.722 35.4009 124.71 35.5569H117.924C117.972 36.2529 118.212 36.7989 118.644 37.1949C119.088 37.5909 119.622 37.7889 120.246 37.7889C120.714 37.7889 121.104 37.6869 121.416 37.4829C121.74 37.2669 121.98 36.9909 122.136 36.6549H124.476C124.308 37.2189 124.026 37.7349 123.63 38.2029C123.246 38.6589 122.766 39.0189 122.19 39.2829C121.626 39.5469 120.984 39.6789 120.264 39.6789ZM120.282 32.1909C119.718 32.1909 119.22 32.3529 118.788 32.6769C118.356 32.9889 118.08 33.4689 117.96 34.1169H122.406C122.37 33.5289 122.154 33.0609 121.758 32.7129C121.362 32.3649 120.87 32.1909 120.282 32.1909ZM130.787 39.6789C129.947 39.6789 129.197 39.4749 128.537 39.0669C127.877 38.6589 127.355 38.1009 126.971 37.3929C126.587 36.6849 126.395 35.8809 126.395 34.9809C126.395 34.0809 126.587 33.2829 126.971 32.5869C127.355 31.8789 127.877 31.3269 128.537 30.9309C129.197 30.5229 129.947 30.3189 130.787 30.3189C131.459 30.3189 132.047 30.4449 132.551 30.6969C133.055 30.9489 133.463 31.3029 133.775 31.7589V26.5029H136.079V39.4629H134.027L133.775 38.1849C133.487 38.5809 133.103 38.9289 132.623 39.2289C132.155 39.5289 131.543 39.6789 130.787 39.6789ZM131.273 37.6629C132.017 37.6629 132.623 37.4169 133.091 36.9249C133.571 36.4209 133.811 35.7789 133.811 34.9989C133.811 34.2189 133.571 33.5829 133.091 33.0909C132.623 32.5869 132.017 32.3349 131.273 32.3349C130.541 32.3349 129.935 32.5809 129.455 33.0729C128.975 33.5649 128.735 34.2009 128.735 34.9809C128.735 35.7609 128.975 36.4029 129.455 36.9069C129.935 37.4109 130.541 37.6629 131.273 37.6629Z" fill="#5D5A88"/>
<path d="M154.904 27.1172L161.25 33.4628L154.904 39.8085" stroke="#5D5A88" stroke-width="2.5" stroke-linecap="round" stroke-linejoin="round"/>
<path d="M161.25 33.4629L147.75 33.4629" stroke="#5D5A88" stroke-width="2.5" stroke-linecap="round" stroke-linejoin="round"/>
</svg>
