<svg width="131" height="50" viewBox="0 0 131 50" fill="none" xmlns="http://www.w3.org/2000/svg">
<rect x="0.5" y="0.5" width="130" height="49" rx="24.5" stroke="#552ACA"/>
<path d="M29.901 31.216C28.977 31.216 28.161 31.06 27.453 30.748C26.745 30.424 26.187 29.968 25.779 29.38C25.371 28.78 25.161 28.054 25.149 27.202H27.579C27.603 27.79 27.813 28.288 28.209 28.696C28.617 29.092 29.175 29.29 29.883 29.29C30.495 29.29 30.981 29.146 31.341 28.858C31.701 28.558 31.881 28.162 31.881 27.67C31.881 27.154 31.719 26.752 31.395 26.464C31.083 26.176 30.663 25.942 30.135 25.762C29.607 25.582 29.043 25.39 28.443 25.186C27.471 24.85 26.727 24.418 26.211 23.89C25.707 23.362 25.455 22.66 25.455 21.784C25.443 21.04 25.617 20.404 25.977 19.876C26.349 19.336 26.853 18.922 27.489 18.634C28.125 18.334 28.857 18.184 29.685 18.184C30.525 18.184 31.263 18.334 31.899 18.634C32.547 18.934 33.051 19.354 33.411 19.894C33.783 20.434 33.981 21.076 34.005 21.82H31.539C31.527 21.376 31.353 20.986 31.017 20.65C30.693 20.302 30.237 20.128 29.649 20.128C29.145 20.116 28.719 20.242 28.371 20.506C28.035 20.758 27.867 21.13 27.867 21.622C27.867 22.042 27.999 22.378 28.263 22.63C28.527 22.87 28.887 23.074 29.343 23.242C29.799 23.41 30.321 23.59 30.909 23.782C31.533 23.998 32.103 24.25 32.619 24.538C33.135 24.826 33.549 25.21 33.861 25.69C34.173 26.158 34.329 26.764 34.329 27.508C34.329 28.168 34.161 28.78 33.825 29.344C33.489 29.908 32.991 30.364 32.331 30.712C31.671 31.048 30.861 31.216 29.901 31.216ZM40.6232 31.216C39.7232 31.216 38.9252 31.024 38.2292 30.64C37.5332 30.256 36.9872 29.716 36.5912 29.02C36.1952 28.324 35.9972 27.52 35.9972 26.608C35.9972 25.684 36.1892 24.862 36.5732 24.142C36.9692 23.422 37.5092 22.864 38.1932 22.468C38.8892 22.06 39.7052 21.856 40.6412 21.856C41.5172 21.856 42.2912 22.048 42.9632 22.432C43.6352 22.816 44.1572 23.344 44.5292 24.016C44.9132 24.676 45.1052 25.414 45.1052 26.23C45.1052 26.362 45.0992 26.5 45.0872 26.644C45.0872 26.788 45.0812 26.938 45.0692 27.094H38.2832C38.3312 27.79 38.5712 28.336 39.0032 28.732C39.4472 29.128 39.9812 29.326 40.6052 29.326C41.0732 29.326 41.4632 29.224 41.7752 29.02C42.0992 28.804 42.3392 28.528 42.4952 28.192H44.8352C44.6672 28.756 44.3852 29.272 43.9892 29.74C43.6052 30.196 43.1252 30.556 42.5492 30.82C41.9852 31.084 41.3432 31.216 40.6232 31.216ZM40.6412 23.728C40.0772 23.728 39.5792 23.89 39.1472 24.214C38.7152 24.526 38.4392 25.006 38.3192 25.654H42.7652C42.7292 25.066 42.5132 24.598 42.1172 24.25C41.7212 23.902 41.2292 23.728 40.6412 23.728ZM51.381 31.216C50.481 31.216 49.683 31.024 48.987 30.64C48.291 30.256 47.745 29.716 47.349 29.02C46.953 28.324 46.755 27.52 46.755 26.608C46.755 25.684 46.947 24.862 47.331 24.142C47.727 23.422 48.267 22.864 48.951 22.468C49.647 22.06 50.463 21.856 51.399 21.856C52.275 21.856 53.049 22.048 53.721 22.432C54.393 22.816 54.915 23.344 55.287 24.016C55.671 24.676 55.863 25.414 55.863 26.23C55.863 26.362 55.857 26.5 55.845 26.644C55.845 26.788 55.839 26.938 55.827 27.094H49.041C49.089 27.79 49.329 28.336 49.761 28.732C50.205 29.128 50.739 29.326 51.363 29.326C51.831 29.326 52.221 29.224 52.533 29.02C52.857 28.804 53.097 28.528 53.253 28.192H55.593C55.425 28.756 55.143 29.272 54.747 29.74C54.363 30.196 53.883 30.556 53.307 30.82C52.743 31.084 52.101 31.216 51.381 31.216ZM51.399 23.728C50.835 23.728 50.337 23.89 49.905 24.214C49.473 24.526 49.197 25.006 49.077 25.654H53.523C53.487 25.066 53.271 24.598 52.875 24.25C52.479 23.902 51.987 23.728 51.399 23.728ZM65.1679 31.216C64.3999 31.216 63.7699 31.096 63.2779 30.856C62.7859 30.604 62.4199 30.274 62.1799 29.866C61.9399 29.458 61.8199 29.008 61.8199 28.516C61.8199 27.688 62.1439 27.016 62.7919 26.5C63.4399 25.984 64.4119 25.726 65.7079 25.726H67.9759V25.51C67.9759 24.898 67.8019 24.448 67.4539 24.16C67.1059 23.872 66.6739 23.728 66.1579 23.728C65.6899 23.728 65.2819 23.842 64.9339 24.07C64.5859 24.286 64.3699 24.61 64.2859 25.042H62.0359C62.0959 24.394 62.3119 23.83 62.6839 23.35C63.0679 22.87 63.5599 22.504 64.1599 22.252C64.7599 21.988 65.4319 21.856 66.1759 21.856C67.4479 21.856 68.4499 22.174 69.1819 22.81C69.9139 23.446 70.2799 24.346 70.2799 25.51V31H68.3179L68.1019 29.56C67.8379 30.04 67.4659 30.436 66.9859 30.748C66.5179 31.06 65.9119 31.216 65.1679 31.216ZM65.6899 29.416C66.3499 29.416 66.8599 29.2 67.2199 28.768C67.5919 28.336 67.8259 27.802 67.9219 27.166H65.9599C65.3479 27.166 64.9099 27.28 64.6459 27.508C64.3819 27.724 64.2499 27.994 64.2499 28.318C64.2499 28.666 64.3819 28.936 64.6459 29.128C64.9099 29.32 65.2579 29.416 65.6899 29.416ZM72.4786 31V18.04H74.7826V31H72.4786ZM77.1368 31V18.04H79.4408V31H77.1368Z" fill="#5D2EDE"/>
<path d="M98.4044 18.6543L104.75 24.9999L98.4044 31.3456" stroke="#5D5A88" stroke-width="1.5" stroke-linecap="round" stroke-linejoin="round"/>
<path d="M104.75 25L91.25 25" stroke="#5D5A88" stroke-width="1.5" stroke-linecap="round" stroke-linejoin="round"/>
</svg>
